<?xml version="1.0" encoding="UTF-8" standalone="no"?>
<!-- Generator: Adobe Illustrator 16.0.0, SVG Export Plug-In . SVG Version: 6.00 Build 0)  -->

<svg
   xmlns:dc="http://purl.org/dc/elements/1.1/"
   xmlns:cc="http://creativecommons.org/ns#"
   xmlns:rdf="http://www.w3.org/1999/02/22-rdf-syntax-ns#"
   xmlns:svg="http://www.w3.org/2000/svg"
   xmlns="http://www.w3.org/2000/svg"
   xmlns:sodipodi="http://sodipodi.sourceforge.net/DTD/sodipodi-0.dtd"
   xmlns:inkscape="http://www.inkscape.org/namespaces/inkscape"
   version="1.1"
   id="Capa_1"
   x="0px"
   y="0px"
   width="612px"
   height="612px"
   viewBox="0 0 612 612"
   style="enable-background:new 0 0 612 612;"
   xml:space="preserve"
   inkscape:version="0.48.4 r9939"
   sodipodi:docname="up-arrow39.svg"><metadata
     id="metadata46"><rdf:RDF><cc:Work
         rdf:about=""><dc:format>image/svg+xml</dc:format><dc:type
           rdf:resource="http://purl.org/dc/dcmitype/StillImage" /></cc:Work></rdf:RDF></metadata><defs
     id="defs44" /><sodipodi:namedview
     pagecolor="#ffffff"
     bordercolor="#666666"
     borderopacity="1"
     objecttolerance="10"
     gridtolerance="10"
     guidetolerance="10"
     inkscape:pageopacity="0"
     inkscape:pageshadow="2"
     inkscape:window-width="1311"
     inkscape:window-height="744"
     id="namedview42"
     showgrid="false"
     inkscape:zoom="0.38562092"
     inkscape:cx="306"
     inkscape:cy="306"
     inkscape:window-x="55"
     inkscape:window-y="24"
     inkscape:window-maximized="1"
     inkscape:current-layer="Capa_1" /><g
     id="g3"
     style="fill:#241f1c"><g
       id="g5"
       style="fill:#241f1c"><g
         id="North"
         style="fill:#241f1c"><g
           id="g8"
           style="fill:#241f1c"><path
             d="M331.742,164.112c-7.172-7.115-16.906-11.112-27.1-11.112c-10.174,0-19.909,3.997-27.1,11.112l-113.469,114.75      c-14.975,14.822-14.975,38.842,0,53.666c14.975,14.841,39.226,14.841,54.181,0l49.496-50.356v138.962      c0,20.923,16.964,37.867,37.868,37.867h0.765c20.923,0,37.867-16.944,37.867-37.867V287.965l4.973,0.803l43.013,42.61      c13.56,13.426,35.267,16.696,50.796,5.604c19.718-14.096,21.344-41.482,4.877-57.796L331.742,164.112z M306,0      C137.012,0,0,136.992,0,306s137.012,306,306,306c169.008,0,306-136.992,306-306S475.008,0,306,0z M306,535.5      C179.45,535.5,76.5,432.55,76.5,306S179.45,76.5,306,76.5S535.5,179.45,535.5,306S432.55,535.5,306,535.5z"
             id="path10"
             style="fill:#241f1c" /></g></g></g></g><g
     id="g12"
     style="fill:#241f1c" /><g
     id="g14"
     style="fill:#241f1c" /><g
     id="g16"
     style="fill:#241f1c" /><g
     id="g18"
     style="fill:#241f1c" /><g
     id="g20"
     style="fill:#241f1c" /><g
     id="g22"
     style="fill:#241f1c" /><g
     id="g24"
     style="fill:#241f1c" /><g
     id="g26"
     style="fill:#241f1c" /><g
     id="g28"
     style="fill:#241f1c" /><g
     id="g30"
     style="fill:#241f1c" /><g
     id="g32"
     style="fill:#241f1c" /><g
     id="g34"
     style="fill:#241f1c" /><g
     id="g36"
     style="fill:#241f1c" /><g
     id="g38"
     style="fill:#241f1c" /><g
     id="g40"
     style="fill:#241f1c" /></svg>